<svg xmlns="http://www.w3.org/2000/svg" xmlns:xlink="http://www.w3.org/1999/xlink" width="100" zoomAndPan="magnify" viewBox="0 0 75 37.5" height="50" preserveAspectRatio="xMidYMid meet" version="1.0"><defs><g/></defs><g fill="#ff80ab" fill-opacity="1"><g transform="translate(2.530043, 31.378195)"><g><path d="M 25.671875 -12.84375 C 26.128906 -12.84375 26.460938 -12.742188 26.671875 -12.546875 C 26.878906 -12.347656 26.984375 -12.085938 26.984375 -11.765625 C 26.984375 -11.253906 26.828125 -10.800781 26.515625 -10.40625 C 26.210938 -10.007812 25.734375 -9.800781 25.078125 -9.78125 C 23.492188 -9.738281 22.085938 -9.859375 20.859375 -10.140625 C 19.453125 -7.179688 17.753906 -4.722656 15.765625 -2.765625 C 13.773438 -0.816406 11.78125 0.15625 9.78125 0.15625 C 7.71875 0.15625 6.179688 -1.039062 5.171875 -3.4375 C 4.160156 -5.84375 3.65625 -9.085938 3.65625 -13.171875 C 3.65625 -16.648438 3.898438 -19.78125 4.390625 -22.5625 C 4.578125 -23.59375 4.832031 -24.289062 5.15625 -24.65625 C 5.476562 -25.019531 6.035156 -25.203125 6.828125 -25.203125 C 8.140625 -25.203125 8.796875 -24.632812 8.796875 -23.5 C 8.796875 -23.382812 8.773438 -23.171875 8.734375 -22.859375 C 8.140625 -19.285156 7.84375 -16.054688 7.84375 -13.171875 C 7.84375 -10.140625 8.09375 -7.832031 8.59375 -6.25 C 9.101562 -4.675781 9.863281 -3.890625 10.875 -3.890625 C 11.90625 -3.890625 13.023438 -4.601562 14.234375 -6.03125 C 15.441406 -7.457031 16.550781 -9.25 17.5625 -11.40625 C 16.351562 -12.164062 15.441406 -13.144531 14.828125 -14.34375 C 14.210938 -15.539062 13.90625 -16.921875 13.90625 -18.484375 C 13.90625 -20.046875 14.144531 -21.367188 14.625 -22.453125 C 15.113281 -23.535156 15.78125 -24.34375 16.625 -24.875 C 17.46875 -25.40625 18.40625 -25.671875 19.4375 -25.671875 C 20.707031 -25.671875 21.710938 -25.210938 22.453125 -24.296875 C 23.191406 -23.390625 23.5625 -22.144531 23.5625 -20.5625 C 23.5625 -18.28125 23.066406 -15.796875 22.078125 -13.109375 C 23.128906 -12.929688 24.328125 -12.84375 25.671875 -12.84375 Z M 16.90625 -18.6875 C 16.90625 -16.75 17.53125 -15.316406 18.78125 -14.390625 C 19.550781 -16.609375 19.9375 -18.4375 19.9375 -19.875 C 19.9375 -20.707031 19.828125 -21.316406 19.609375 -21.703125 C 19.390625 -22.085938 19.09375 -22.28125 18.71875 -22.28125 C 18.1875 -22.28125 17.75 -21.96875 17.40625 -21.34375 C 17.070312 -20.726562 16.90625 -19.84375 16.90625 -18.6875 Z M 16.90625 -18.6875 "/></g></g></g><g fill="#ff80ab" fill-opacity="1"><g transform="translate(25.198277, 31.378195)"><g><path d="M 14.6875 -6.625 C 14.9375 -6.625 15.132812 -6.503906 15.28125 -6.265625 C 15.4375 -6.023438 15.515625 -5.703125 15.515625 -5.296875 C 15.515625 -4.492188 15.328125 -3.878906 14.953125 -3.453125 C 14.210938 -2.554688 13.175781 -1.726562 11.84375 -0.96875 C 10.507812 -0.21875 9.078125 0.15625 7.546875 0.15625 C 5.460938 0.15625 3.847656 -0.40625 2.703125 -1.53125 C 1.554688 -2.664062 0.984375 -4.21875 0.984375 -6.1875 C 0.984375 -7.550781 1.269531 -8.820312 1.84375 -10 C 2.414062 -11.175781 3.210938 -12.109375 4.234375 -12.796875 C 5.253906 -13.492188 6.410156 -13.84375 7.703125 -13.84375 C 8.847656 -13.84375 9.765625 -13.5 10.453125 -12.8125 C 11.148438 -12.132812 11.5 -11.210938 11.5 -10.046875 C 11.5 -8.679688 11.007812 -7.503906 10.03125 -6.515625 C 9.050781 -5.535156 7.390625 -4.757812 5.046875 -4.1875 C 5.546875 -3.28125 6.488281 -2.828125 7.875 -2.828125 C 8.769531 -2.828125 9.785156 -3.140625 10.921875 -3.765625 C 12.054688 -4.390625 13.039062 -5.207031 13.875 -6.21875 C 14.113281 -6.488281 14.382812 -6.625 14.6875 -6.625 Z M 7.1875 -10.9375 C 6.457031 -10.9375 5.835938 -10.507812 5.328125 -9.65625 C 4.828125 -8.800781 4.578125 -7.769531 4.578125 -6.5625 L 4.578125 -6.515625 C 5.742188 -6.785156 6.660156 -7.195312 7.328125 -7.75 C 8.003906 -8.3125 8.34375 -8.957031 8.34375 -9.6875 C 8.34375 -10.0625 8.238281 -10.363281 8.03125 -10.59375 C 7.832031 -10.820312 7.550781 -10.9375 7.1875 -10.9375 Z M 7.1875 -10.9375 "/></g></g></g><g fill="#ff80ab" fill-opacity="1"><g transform="translate(36.874051, 31.378195)"><g><path d="M 12.6875 -6.625 C 12.945312 -6.625 13.148438 -6.503906 13.296875 -6.265625 C 13.441406 -6.023438 13.515625 -5.703125 13.515625 -5.296875 C 13.515625 -4.492188 13.328125 -3.878906 12.953125 -3.453125 C 12.097656 -2.398438 11.171875 -1.535156 10.171875 -0.859375 C 9.171875 -0.179688 8.039062 0.15625 6.78125 0.15625 C 5.03125 0.15625 3.734375 -0.632812 2.890625 -2.21875 C 2.054688 -3.8125 1.640625 -5.863281 1.640625 -8.375 C 1.640625 -10.789062 1.945312 -13.546875 2.5625 -16.640625 C 3.1875 -19.734375 4.109375 -22.390625 5.328125 -24.609375 C 6.546875 -26.828125 8 -27.9375 9.6875 -27.9375 C 10.632812 -27.9375 11.378906 -27.492188 11.921875 -26.609375 C 12.472656 -25.734375 12.75 -24.472656 12.75 -22.828125 C 12.75 -20.460938 12.09375 -17.722656 10.78125 -14.609375 C 9.476562 -11.503906 7.707031 -8.425781 5.46875 -5.375 C 5.601562 -4.5625 5.828125 -3.984375 6.140625 -3.640625 C 6.460938 -3.296875 6.882812 -3.125 7.40625 -3.125 C 8.21875 -3.125 8.929688 -3.351562 9.546875 -3.8125 C 10.160156 -4.28125 10.941406 -5.082031 11.890625 -6.21875 C 12.128906 -6.488281 12.394531 -6.625 12.6875 -6.625 Z M 9.03125 -25 C 8.570312 -25 8.054688 -24.175781 7.484375 -22.53125 C 6.910156 -20.882812 6.40625 -18.84375 5.96875 -16.40625 C 5.53125 -13.96875 5.296875 -11.628906 5.265625 -9.390625 C 6.671875 -11.710938 7.785156 -14.035156 8.609375 -16.359375 C 9.441406 -18.691406 9.859375 -20.816406 9.859375 -22.734375 C 9.859375 -24.242188 9.582031 -25 9.03125 -25 Z M 9.03125 -25 "/></g></g></g><g fill="#ff80ab" fill-opacity="1"><g transform="translate(46.559298, 31.378195)"><g><path d="M 12.6875 -6.625 C 12.945312 -6.625 13.148438 -6.503906 13.296875 -6.265625 C 13.441406 -6.023438 13.515625 -5.703125 13.515625 -5.296875 C 13.515625 -4.492188 13.328125 -3.878906 12.953125 -3.453125 C 12.097656 -2.398438 11.171875 -1.535156 10.171875 -0.859375 C 9.171875 -0.179688 8.039062 0.15625 6.78125 0.15625 C 5.03125 0.15625 3.734375 -0.632812 2.890625 -2.21875 C 2.054688 -3.8125 1.640625 -5.863281 1.640625 -8.375 C 1.640625 -10.789062 1.945312 -13.546875 2.5625 -16.640625 C 3.1875 -19.734375 4.109375 -22.390625 5.328125 -24.609375 C 6.546875 -26.828125 8 -27.9375 9.6875 -27.9375 C 10.632812 -27.9375 11.378906 -27.492188 11.921875 -26.609375 C 12.472656 -25.734375 12.75 -24.472656 12.75 -22.828125 C 12.75 -20.460938 12.09375 -17.722656 10.78125 -14.609375 C 9.476562 -11.503906 7.707031 -8.425781 5.46875 -5.375 C 5.601562 -4.5625 5.828125 -3.984375 6.140625 -3.640625 C 6.460938 -3.296875 6.882812 -3.125 7.40625 -3.125 C 8.21875 -3.125 8.929688 -3.351562 9.546875 -3.8125 C 10.160156 -4.28125 10.941406 -5.082031 11.890625 -6.21875 C 12.128906 -6.488281 12.394531 -6.625 12.6875 -6.625 Z M 9.03125 -25 C 8.570312 -25 8.054688 -24.175781 7.484375 -22.53125 C 6.910156 -20.882812 6.40625 -18.84375 5.96875 -16.40625 C 5.53125 -13.96875 5.296875 -11.628906 5.265625 -9.390625 C 6.671875 -11.710938 7.785156 -14.035156 8.609375 -16.359375 C 9.441406 -18.691406 9.859375 -20.816406 9.859375 -22.734375 C 9.859375 -24.242188 9.582031 -25 9.03125 -25 Z M 9.03125 -25 "/></g></g></g><g fill="#ff80ab" fill-opacity="1"><g transform="translate(56.244546, 31.378195)"><g><path d="M 16.578125 -9.125 C 16.835938 -9.125 17.035156 -8.992188 17.171875 -8.734375 C 17.316406 -8.472656 17.390625 -8.144531 17.390625 -7.75 C 17.390625 -6.800781 17.101562 -6.238281 16.53125 -6.0625 C 15.332031 -5.644531 14.019531 -5.40625 12.59375 -5.34375 C 12.21875 -3.6875 11.472656 -2.351562 10.359375 -1.34375 C 9.253906 -0.34375 8 0.15625 6.59375 0.15625 C 5.40625 0.15625 4.390625 -0.128906 3.546875 -0.703125 C 2.703125 -1.285156 2.0625 -2.050781 1.625 -3 C 1.195312 -3.945312 0.984375 -4.976562 0.984375 -6.09375 C 0.984375 -7.59375 1.269531 -8.929688 1.84375 -10.109375 C 2.414062 -11.296875 3.207031 -12.21875 4.21875 -12.875 C 5.226562 -13.539062 6.347656 -13.875 7.578125 -13.875 C 9.085938 -13.875 10.300781 -13.351562 11.21875 -12.3125 C 12.132812 -11.28125 12.675781 -10 12.84375 -8.46875 C 13.769531 -8.53125 14.878906 -8.726562 16.171875 -9.0625 C 16.328125 -9.101562 16.460938 -9.125 16.578125 -9.125 Z M 6.828125 -3 C 7.460938 -3 8.015625 -3.253906 8.484375 -3.765625 C 8.953125 -4.285156 9.265625 -5.03125 9.421875 -6 C 8.804688 -6.414062 8.332031 -6.957031 8 -7.625 C 7.675781 -8.300781 7.515625 -9.019531 7.515625 -9.78125 C 7.515625 -10.09375 7.546875 -10.410156 7.609375 -10.734375 L 7.453125 -10.734375 C 6.660156 -10.734375 6.003906 -10.347656 5.484375 -9.578125 C 4.960938 -8.816406 4.703125 -7.742188 4.703125 -6.359375 C 4.703125 -5.265625 4.910156 -4.429688 5.328125 -3.859375 C 5.753906 -3.285156 6.253906 -3 6.828125 -3 Z M 6.828125 -3 "/></g></g></g></svg>